<?xml version="1.0" encoding="UTF-8"?>
<svg version="1.1" xmlns="http://www.w3.org/2000/svg" width="555" height="150">
<path d="M0 0 C2.5230673 0.00315202 5.04494829 -0.02036122 7.56787109 -0.0456543 C24.94770924 -0.11371698 44.21991263 1.05703207 57.57177734 13.47192383 C71.44682083 28.35606138 71.52507904 48.56742815 71.54052734 67.75317383 C71.54120209 68.50657043 71.54187683 69.25996704 71.54257202 70.03619385 C71.5165056 88.37672167 71.36548939 108.36712974 58.13427734 122.59692383 C43.72733956 136.02712007 24.37844937 136.5111426 5.73730469 136.5559082 C3.32369542 136.56554145 0.91096641 136.59660667 -1.50244141 136.62817383 C-19.00460891 136.7470293 -37.70355972 135.24783916 -51.27197266 123.00317383 C-64.45541647 108.46758193 -65.07247042 89.8730654 -65.02514648 71.12402344 C-65.02199007 68.51755744 -65.04552047 65.91223464 -65.07080078 63.3059082 C-65.13613793 45.91706917 -63.57143189 27.06941104 -51.70947266 13.31567383 C-37.54644013 0.5183623 -18.10234122 -0.04709609 0 0 Z " fill="#53A4E4" transform="translate(72.70947265625,6.684326171875)"/>
<path d="M0 0 C5.43232106 5.0054196 8.4710064 9.61213728 9.37109375 17.078125 C9.53282637 24.80323588 8.70979027 30.70890334 4 37 C-1.29545434 42.32868941 -6.80574276 44.51604724 -14.25 45.375 C-20.96331913 44.70366809 -27.19278284 42.80721716 -32 38 C-32.33 45.59 -32.66 53.18 -33 61 C-35.475 61.495 -35.475 61.495 -38 62 C-40.05688591 59.94311409 -39.44606884 55.77855105 -39.58984375 52.94921875 C-39.63302231 52.10783859 -39.67620087 51.26645844 -39.72068787 50.39958191 C-40.20129616 39.53222316 -39.86284848 28.68066552 -39.5625 17.8125 C-39.5090951 15.68295942 -39.45635711 13.553402 -39.40429688 11.42382812 C-39.27718762 6.28232636 -39.14116432 1.14113427 -39 -4 C-37.33388095 -4.042721 -35.66617115 -4.04063832 -34 -4 C-33 -3 -33 -3 -32.9375 0.0625 C-32.958125 1.031875 -32.97875 2.00125 -33 3 C-32.34 3 -31.68 3 -31 3 C-30.67 2.01 -30.34 1.02 -30 0 C-20.66386645 -6.46176308 -9.28059054 -6.46492235 0 0 Z M-28.875 6.375 C-33.73490887 12.37841684 -33.62742527 18.5619746 -33 26 C-31.28347789 31.45248198 -27.60380327 34.7878009 -23 38 C-17.61592666 39.79469111 -12.65600512 39.49680154 -7.25 37.875 C-2.68741415 35.24273893 -0.35702099 32.32632169 2.3125 27.75 C4.01188432 20.95246271 3.71247941 14.81651333 0.203125 8.6875 C-2.65212843 4.68272896 -6.3186166 2.33753811 -11 1 C-18.01762487 0.33795992 -23.47904591 1.91747271 -28.875 6.375 Z " fill="#007BDC" transform="translate(464,59)"/>
<path d="M0 0 C1.19221916 0.00212242 1.19221916 0.00212242 2.40852356 0.00428772 C4.9455645 0.00988247 7.482517 0.02243397 10.01953125 0.03515625 C11.7402331 0.04017193 13.46093633 0.04473472 15.18164062 0.04882812 C19.39847155 0.05985018 23.61523641 0.07711119 27.83203125 0.09765625 C27.83203125 3.06765625 27.83203125 6.03765625 27.83203125 9.09765625 C10.50703125 9.59265625 10.50703125 9.59265625 -7.16796875 10.09765625 C-7.16796875 19.66765625 -7.16796875 29.23765625 -7.16796875 39.09765625 C4.38203125 39.42765625 15.93203125 39.75765625 27.83203125 40.09765625 C27.83203125 43.06765625 27.83203125 46.03765625 27.83203125 49.09765625 C22.79664535 49.14720588 17.76140235 49.18344662 12.72583008 49.20751953 C11.01389086 49.21755833 9.3019687 49.2311922 7.59008789 49.24853516 C5.12511983 49.27287698 2.6603791 49.28416063 0.1953125 49.29296875 C-0.94716194 49.30845261 -0.94716194 49.30845261 -2.11271667 49.32424927 C-6.23214146 49.32511311 -9.61292525 49.27284564 -13.16796875 47.09765625 C-16.96384511 42.66893073 -17.67241579 39.44581954 -17.6640625 33.6875 C-17.66551773 32.99757462 -17.66697296 32.30764923 -17.66847229 31.59681702 C-17.66682145 30.14710236 -17.65535183 28.69736868 -17.63452148 27.24780273 C-17.60549936 25.03748749 -17.61394051 22.82956575 -17.62695312 20.61914062 C-17.57162444 8.06858789 -17.57162444 8.06858789 -12.66796875 2.34765625 C-9.0093521 -0.70119096 -4.48277311 -0.02997112 0 0 Z " fill="#EDF7FB" transform="translate(70.16796875,50.90234375)"/>
<path d="M0 0 C8.65504848 0.13341115 17.38892899 3.09111267 23.4375 9.3125 C22.7775 10.6325 22.1175 11.9525 21.4375 13.3125 C18.1332923 12.91198998 15.75003557 12.01109916 12.9375 10.3125 C6.28998981 6.35837756 -0.59182541 6.70483062 -8 8.375 C-14.6222746 10.33075417 -18.98467507 13.63928205 -22.94140625 19.27734375 C-26.78454764 26.46816929 -26.54116505 34.87741374 -25.125 42.7421875 C-23.0820155 49.30527521 -18.20054234 53.7296746 -12.4375 57.1875 C-4.14747693 60.43142207 4.1735439 60.12717823 12.52734375 57.26171875 C14.52810175 56.3985048 14.52810175 56.3985048 16.0234375 54.6875 C16.49007812 54.23375 16.95671875 53.78 17.4375 53.3125 C20.125 53.625 20.125 53.625 22.4375 54.3125 C22.4375 56.5 22.4375 56.5 21.4375 59.3125 C14.66746216 65.25527636 6.6295205 66.71398674 -2.1171875 66.5 C-11.40062029 65.78817129 -19.55596041 62.18230186 -25.95703125 55.37109375 C-32.06052708 47.54495676 -34.28658334 39.15260695 -33.5625 29.3125 C-32.11757414 19.91133679 -28.29369916 13.18029255 -21 7.07421875 C-14.42822808 2.32442847 -7.97930653 0.69993917 0 0 Z " fill="#007BDC" transform="translate(210.5625,37.6875)"/>
<path d="M0 0 C3.52624238 3.09621282 6.06714141 5.76392422 7.5625 10.25 C7.64757079 12.9815956 7.67841565 15.68691443 7.66015625 18.41796875 C7.6587413 19.21278152 7.65732635 20.0075943 7.65586853 20.82649231 C7.65027378 23.36353325 7.63772228 25.90048575 7.625 28.4375 C7.61998432 30.15820185 7.61542153 31.87890508 7.61132812 33.59960938 C7.60030607 37.8164403 7.58304506 42.03320516 7.5625 46.25 C5.9125 46.25 4.2625 46.25 2.5625 46.25 C2.0675 44.27 2.0675 44.27 1.5625 42.25 C1.03140625 42.52714844 0.5003125 42.80429688 -0.046875 43.08984375 C-1.10648437 43.63318359 -1.10648437 43.63318359 -2.1875 44.1875 C-3.23164063 44.72697266 -3.23164063 44.72697266 -4.296875 45.27734375 C-10.96135477 48.30554715 -17.58839295 47.76652392 -24.3515625 45.28515625 C-27.9573134 43.49578549 -29.33705332 41.72886481 -31.4375 38.25 C-32.72160603 34.229143 -32.70991846 31.03698666 -31.3125 27 C-28.04938433 22.21409702 -25.20254911 20.20499566 -19.5625 19 C-12.54040315 17.90489871 -5.52403127 18.07785754 1.5625 18.25 C0.44842149 10.75826913 0.44842149 10.75826913 -4.4375 5.25 C-11.51153186 2.89198938 -16.9038204 4.17441123 -23.41796875 7.42578125 C-26.05260436 8.50103873 -27.80715329 8.26819873 -30.4375 7.25 C-30.07590088 4.62840639 -29.72145546 3.50062435 -27.70703125 1.72265625 C-19.55413592 -3.56760458 -8.63750035 -4.39727291 0 0 Z M-24.4375 27.25 C-26.08401235 30.5430247 -26.6510637 32.3316761 -25.8125 35.9375 C-24.24495077 38.5738328 -23.05725075 39.66648628 -20.4375 41.25 C-14.16891883 42.14052267 -7.64692637 42.15706978 -2.4375 38.25 C0.5721348 34.84436062 1.78390891 32.51877127 1.6640625 28.04296875 C1.63054687 26.79128906 1.59703125 25.53960937 1.5625 24.25 C-1.8331697 24.16254054 -5.22854773 24.10945556 -8.625 24.0625 C-9.58470703 24.03736328 -10.54441406 24.01222656 -11.53320312 23.98632812 C-18.50932957 23.84691483 -18.50932957 23.84691483 -24.4375 27.25 Z " fill="#007BDC" transform="translate(273.4375,56.75)"/>
<path d="M0 0 C3.93437872 3.4660003 6.71809565 7.10208306 7.625 12.3125 C7.70816178 14.93147019 7.74134452 17.52251753 7.72265625 20.140625 C7.7212413 20.88963074 7.71982635 21.63863647 7.71836853 22.41033936 C7.71278659 24.79443412 7.70023745 27.17843378 7.6875 29.5625 C7.68248266 31.18229031 7.67792016 32.80208209 7.67382812 34.421875 C7.66282308 38.38545312 7.64557091 42.34896045 7.625 46.3125 C3.875 47.4375 3.875 47.4375 1.625 46.3125 C1.625 44.9925 1.625 43.6725 1.625 42.3125 C1.09390625 42.58964844 0.5628125 42.86679688 0.015625 43.15234375 C-1.04398438 43.69568359 -1.04398438 43.69568359 -2.125 44.25 C-3.16914062 44.78947266 -3.16914062 44.78947266 -4.234375 45.33984375 C-10.16150709 48.03301143 -16.42174523 48.17965708 -22.5625 46.125 C-26.3137059 44.56692038 -28.77303912 42.46639198 -31.375 39.3125 C-32.58143566 35.69319302 -32.69768559 33.12018995 -32.375 29.3125 C-29.63614877 24.22606199 -26.8648792 21.14245973 -21.375 19.3125 C-19.60333025 19.16414052 -17.82732388 19.06479982 -16.05078125 18.99609375 C-15.02275391 18.95419922 -13.99472656 18.91230469 -12.93554688 18.86914062 C-11.86369141 18.82982422 -10.79183594 18.79050781 -9.6875 18.75 C-8.06231445 18.68522461 -8.06231445 18.68522461 -6.40429688 18.61914062 C-3.72799209 18.51303162 -1.05159474 18.41097639 1.625 18.3125 C1.19976184 16.70503944 0.75929874 15.10160164 0.3125 13.5 C0.06886719 12.60667969 -0.17476562 11.71335937 -0.42578125 10.79296875 C-1.41439883 8.20954421 -2.21547213 7.00279712 -4.375 5.3125 C-11.58648481 2.90867173 -17.3946644 4.32190472 -24.11328125 7.53515625 C-26.67812607 8.41668323 -27.86427402 8.22601357 -30.375 7.3125 C-30.01683345 4.71579254 -29.65530628 3.565034 -27.6796875 1.78515625 C-19.56469365 -3.40018728 -8.57971462 -4.28985731 0 0 Z M-25.375 28.3125 C-26.62338381 31.71778996 -26.62338381 31.71778996 -26.375 35.3125 C-24.60858828 38.11439446 -23.34450178 39.82774911 -20.375 41.3125 C-13.01045425 41.99419543 -7.24919348 42.06184792 -1.375 37.3125 C1.68102988 32.8763276 1.73110244 29.58641542 1.625 24.3125 C-1.9372231 24.19595564 -5.49895342 24.1251361 -9.0625 24.0625 C-10.06990234 24.02898437 -11.07730469 23.99546875 -12.11523438 23.9609375 C-19.61251809 23.81196422 -19.61251809 23.81196422 -25.375 28.3125 Z " fill="#007BDC" transform="translate(537.375,56.6875)"/>
<path d="M0 0 C5.21323002 4.34749507 8.01846021 10.16019419 9.1640625 16.8046875 C9.37867462 24.26561487 7.44222213 30.67794037 3.1640625 36.8046875 C-2.30048315 42.34942564 -8.03871859 44.50332092 -15.7734375 45.1171875 C-22.51760403 44.92151536 -28.6735312 42.04933268 -33.8359375 37.8046875 C-39.66793221 30.16004579 -40.66366355 23.32953504 -39.8359375 13.8046875 C-38.09998431 6.61762016 -33.94133426 1.82425476 -27.8359375 -2.1953125 C-18.43002455 -7.19112707 -8.68939802 -5.76534662 0 0 Z M-29.8359375 6.8046875 C-33.54042926 12.36142515 -34.45658661 18.69123651 -33.46875 25.23828125 C-31.89450429 31.00079797 -28.96423724 34.71667906 -23.8359375 37.8046875 C-18.0849936 39.67575308 -12.05727134 39.67249863 -6.5234375 37.1796875 C-1.80970813 34.54112584 0.47228877 30.8800087 2.1640625 25.8046875 C2.82881929 18.35069332 2.80839895 12.82977263 -1.8359375 6.8046875 C-5.73531085 3.10528201 -9.32392912 1.02312301 -14.7109375 0.5546875 C-20.80772269 1.04243031 -25.45868999 2.42743999 -29.8359375 6.8046875 Z " fill="#007BDC" transform="translate(403.8359375,59.1953125)"/>
<path d="M0 0 C0 3.3 0 6.6 0 10 C4.62 10 9.24 10 14 10 C14.33 11.32 14.66 12.64 15 14 C13.12175109 15.87824891 9.96064724 15.39102397 7.4375 15.5625 C5.64119141 15.68818359 5.64119141 15.68818359 3.80859375 15.81640625 C2.88175781 15.87699219 1.95492188 15.93757813 1 16 C0.975241 20.48404564 0.95711201 24.96805481 0.94506836 29.45214844 C0.94004635 30.97689507 0.9332275 32.50163691 0.92456055 34.02636719 C0.91240151 36.22071519 0.90675032 38.4149994 0.90234375 40.609375 C0.89710693 41.92905273 0.89187012 43.24873047 0.88647461 44.60839844 C0.97688671 47.30948418 1.18118645 49.4500616 2 52 C3.58323688 52.027193 5.16661062 52.04648306 6.75 52.0625 C7.63171875 52.07410156 8.5134375 52.08570313 9.421875 52.09765625 C11.7818838 52.00826198 13.74498524 51.66912821 16 51 C16.33 52.65 16.66 54.3 17 56 C12.44784545 58.66467584 9.2694336 59.56458217 4 59 C0.40529697 57.54829301 -2.5695997 56.06997933 -5 53 C-6.20161511 49.39515466 -6.23017136 46.02710143 -6.31640625 42.26953125 C-6.33718735 41.51911057 -6.35796844 40.76868988 -6.37937927 39.99552917 C-6.44469926 37.60127816 -6.50367792 35.20691861 -6.5625 32.8125 C-6.60570193 31.18813987 -6.64931676 29.56379067 -6.69335938 27.93945312 C-6.80036263 23.95974629 -6.90167937 19.97993042 -7 16 C-9.31 15.67 -11.62 15.34 -14 15 C-14.5625 13.0625 -14.5625 13.0625 -15 11 C-14 10 -14 10 -12.15234375 9.90234375 C-10.1015625 9.93489583 -8.05078125 9.96744792 -6 10 C-6 6.7 -6 3.4 -6 0 C-4 -1 -4 -1 0 0 Z " fill="#007BDC" transform="translate(342,45)"/>
<path d="M0 0 C0 1.65 0 3.3 0 5 C-0.99580078 5.25523438 -0.99580078 5.25523438 -2.01171875 5.515625 C-9.28630561 7.39431028 -9.28630561 7.39431028 -15 12 C-17.20139113 19.64151958 -17.42300037 27.14663931 -17.625 35.0625 C-17.68300781 36.93325195 -17.68300781 36.93325195 -17.7421875 38.84179688 C-17.83575358 41.89439017 -17.92149672 44.94698847 -18 48 C-19.98 48 -21.96 48 -24 48 C-24 32.16 -24 16.32 -24 0 C-22.35 0 -20.7 0 -19 0 C-18.34 1.65 -17.68 3.3 -17 5 C-16.48050781 4.65066406 -15.96101563 4.30132812 -15.42578125 3.94140625 C-6.211875 -2.070625 -6.211875 -2.070625 0 0 Z " fill="#007BDC" transform="translate(322,55)"/>
<path d="M0 0 C1.65 0 3.3 0 5 0 C6.57300328 1.57300328 6.12725504 3.13684045 6.12939453 5.3203125 C6.13254669 6.23796387 6.13569885 7.15561523 6.13894653 8.10107422 C6.1369223 9.09896973 6.13489807 10.09686523 6.1328125 11.125 C6.13376923 12.14223145 6.13472595 13.15946289 6.13571167 14.20751953 C6.13639361 16.36295636 6.13453835 18.51839522 6.13037109 20.67382812 C6.12502305 23.98572371 6.13031563 27.29748367 6.13671875 30.609375 C6.13605797 32.69791697 6.13477681 34.78645885 6.1328125 36.875 C6.13483673 37.87289551 6.13686096 38.87079102 6.13894653 39.89892578 C6.13579437 40.81657715 6.13264221 41.73422852 6.12939453 42.6796875 C6.12859894 43.49163574 6.12780334 44.30358398 6.12698364 45.14013672 C6 47 6 47 5 48 C3.35 48 1.7 48 0 48 C0 32.16 0 16.32 0 0 Z " fill="#007BDC" transform="translate(486,55)"/>
<path d="M0 0 C0.66 0.33 1.32 0.66 2 1 C2 1.66 2 2.32 2 3 C2.98919434 2.99476318 3.97838867 2.98952637 4.99755859 2.98413086 C8.66144916 2.96605477 12.32533577 2.95455842 15.98925781 2.94506836 C17.57617861 2.94003412 19.16309477 2.93320631 20.75 2.92456055 C23.02865749 2.91245518 25.30725376 2.90676267 27.5859375 2.90234375 C28.65320572 2.89460182 28.65320572 2.89460182 29.74203491 2.88670349 C34.77225659 2.88612829 34.77225659 2.88612829 37 4 C36.67 5.65 36.34 7.3 36 9 C31.53432237 9.09917794 27.06923493 9.17161225 22.6027832 9.21972656 C21.0847659 9.23979203 19.56682541 9.26705134 18.04907227 9.30175781 C15.86194878 9.35050393 13.67585048 9.37301805 11.48828125 9.390625 C10.17384033 9.41157227 8.85939941 9.43251953 7.50512695 9.45410156 C3.48832046 8.93371011 1.86583955 7.78629985 -1 5 C-0.67 3.35 -0.34 1.7 0 0 Z " fill="#F7F8F7" transform="translate(60,90)"/>
<path d="M0 0 C0.33 0 0.66 0 1 0 C1.33 9.24 1.66 18.48 2 28 C13.22 28 24.44 28 36 28 C36 28.66 36 29.32 36 30 C31.03377651 30.02465098 26.06758834 30.04283649 21.10131836 30.05493164 C19.41055684 30.0599719 17.71979971 30.06680405 16.02905273 30.07543945 C13.60399293 30.08751857 11.17899056 30.09323123 8.75390625 30.09765625 C7.61327477 30.10539818 7.61327477 30.10539818 6.44960022 30.11329651 C4.6326743 30.11349238 2.81586873 30.06197277 1 30 C0 29 0 29 -0.11352539 26.22436523 C-0.10828857 25.01466064 -0.10305176 23.80495605 -0.09765625 22.55859375 C-0.09443359 21.25341797 -0.09121094 19.94824219 -0.08789062 18.60351562 C-0.07953401 17.2148431 -0.07106905 15.82617123 -0.0625 14.4375 C-0.05748666 13.04492344 -0.05292347 11.65234519 -0.04882812 10.25976562 C-0.03699434 6.8398013 -0.0205088 3.41992156 0 0 Z " fill="#6DAADB" transform="translate(62,61)"/>
<path d="M0 0 C11.22 0 22.44 0 34 0 C34 2.97 34 5.94 34 9 C28.9646141 9.04954963 23.9293711 9.08579037 18.89379883 9.10986328 C17.18185961 9.11990208 15.46993745 9.13353595 13.75805664 9.15087891 C11.29308858 9.17522073 8.82834785 9.18650438 6.36328125 9.1953125 C5.22080681 9.21079636 5.22080681 9.21079636 4.05525208 9.22659302 C-0.03906678 9.2274516 -3.4073604 9.070014 -7 7 C-7.33 6.01 -7.66 5.02 -8 4 C-4.62537285 4.54723683 -2.91765 5.0549 0 7 C2.47056823 7.17112002 4.82503921 7.23253124 7.29296875 7.1953125 C7.99899734 7.1924826 8.70502594 7.18965271 9.43244934 7.18673706 C11.68430633 7.17555464 13.93576352 7.1504542 16.1875 7.125 C17.71548904 7.11496767 19.24348433 7.10584226 20.77148438 7.09765625 C24.51447663 7.07562172 28.25717056 7.04110567 32 7 C32.33 5.02 32.66 3.04 33 1 C22.11 1 11.22 1 0 1 C0 0.67 0 0.34 0 0 Z " fill="#D5F2FE" transform="translate(64,91)"/>
<path d="M0 0 C0.66 0 1.32 0 2 0 C1.98428955 1.00901367 1.9685791 2.01802734 1.95239258 3.05761719 C1.8980232 6.80721021 1.86362468 10.5567685 1.83520508 14.30664062 C1.82013435 15.92844506 1.79967407 17.55020884 1.77368164 19.171875 C1.73722171 21.50531046 1.72025686 23.83820631 1.70703125 26.171875 C1.69154739 26.89493835 1.67606354 27.61800171 1.66011047 28.36297607 C1.65869578 32.61096059 2.14278496 34.84571745 5 38 C5 38.66 5 39.32 5 40 C9.4371721 41.07765373 13.82136272 41.21674522 18.36328125 41.31640625 C19.15526413 41.33718735 19.94724701 41.35796844 20.76322937 41.37937927 C23.27956928 41.44447804 25.79600872 41.50357423 28.3125 41.5625 C30.02409861 41.605723 31.73568735 41.64933848 33.44726562 41.69335938 C37.63140984 41.80011847 41.81565362 41.90149635 46 42 C46 42.33 46 42.66 46 43 C40.8588371 43.07449853 35.71799271 43.12876593 30.57641602 43.16479492 C28.8296155 43.17982429 27.08285235 43.20025354 25.33618164 43.22631836 C22.81647485 43.2629608 20.29726961 43.27978492 17.77734375 43.29296875 C16.6175425 43.31619453 16.6175425 43.31619453 15.43431091 43.33988953 C10.23519505 43.34148102 6.53167913 42.64291008 2 40 C-0.62199263 35.99245627 -0.26012024 31.49997105 -0.1953125 26.85546875 C-0.1924826 26.08568192 -0.18965271 25.31589508 -0.18673706 24.52278137 C-0.17559157 22.07752575 -0.15049781 19.63264388 -0.125 17.1875 C-0.1149629 15.52409385 -0.10583833 13.86068193 -0.09765625 12.19726562 C-0.07567073 8.13136763 -0.04118014 4.06574706 0 0 Z " fill="#71AAD7" transform="translate(52,58)"/>
<path d="M0 0 C1 1 1 1 1.1875 3.4375 C1 6 1 6 -1 8 C-3.5 8.25 -3.5 8.25 -6 8 C-6.66 7.34 -7.32 6.68 -8 6 C-7.75 2.9375 -7.75 2.9375 -7 0 C-4.31633121 -1.3418344 -2.84719317 -0.73004953 0 0 Z " fill="#007BDC" transform="translate(492,37)"/>
<path d="M0 0 C0.33 0 0.66 0 1 0 C1.02685412 2.31243792 1.04632841 4.6249627 1.0625 6.9375 C1.07410156 8.22527344 1.08570313 9.51304688 1.09765625 10.83984375 C1 14 1 14 0 15 C-0.16017166 17.80976518 -0.25950534 20.59773596 -0.31640625 23.41015625 C-0.33718735 24.25219101 -0.35796844 25.09422577 -0.37937927 25.96177673 C-0.44496812 28.66193179 -0.50380276 31.36218717 -0.5625 34.0625 C-0.60567637 35.88868241 -0.64929036 37.71485454 -0.69335938 39.54101562 C-0.80065894 44.02723992 -0.90189966 48.5135655 -1 53 C-1.33 53 -1.66 53 -2 53 C-2.04999037 47.54143561 -2.08599471 42.08300881 -2.10986328 36.62426758 C-2.11982926 34.77300694 -2.13340693 32.92176165 -2.15087891 31.07055664 C-2.24800764 20.50352144 -2.13165193 10.39510757 0 0 Z " fill="#6FAADA" transform="translate(10,42)"/>
<path d="M0 0 C0 0.66 0 1.32 0 2 C-1.051875 2.103125 -2.10375 2.20625 -3.1875 2.3125 C-6.91483682 2.73830346 -6.91483682 2.73830346 -9.375 4.5 C-13.10060031 6.62891446 -16.77304393 6.73293742 -21 7 C-18.47604962 3.97299421 -15.89052657 3.02821061 -12.1875 1.8125 C-11.17042969 1.46832031 -10.15335938 1.12414062 -9.10546875 0.76953125 C-5.94499835 -0.01362934 -3.24171449 -0.14052275 0 0 Z " fill="#6BABDA" transform="translate(49,9)"/>
<path d="M0 0 C0.66 0.33 1.32 0.66 2 1 C2.10251672 6.12583611 2.03590199 10.94997778 1 16 C0.67 16 0.34 16 0 16 C-0.19389096 13.5211787 -0.38040123 11.04219069 -0.5625 8.5625 C-0.61857422 7.85544922 -0.67464844 7.14839844 -0.73242188 6.41992188 C-0.86190993 4.61572163 -0.93521608 2.80768048 -1 1 C-0.67 0.67 -0.34 0.34 0 0 Z " fill="#62A3D9" transform="translate(141,91)"/>
<path d="M0 0 C3.63 0 7.26 0 11 0 C11.66 1.32 12.32 2.64 13 4 C8.28596212 3.52060632 4.33420699 3.03165952 0 1 C0 0.67 0 0.34 0 0 Z " fill="#65A7E1" transform="translate(31,136)"/>
<path d="M0 0 C3.33633368 2.99119571 5.24527707 5.87640111 7 10 C7 10.99 7 11.98 7 13 C6.34 13 5.68 13 5 13 C4.16209211 11.21046815 3.32980604 9.41830305 2.5 7.625 C1.80390625 6.12839844 1.80390625 6.12839844 1.09375 4.6015625 C0 2 0 2 0 0 Z " fill="#67A8DA" transform="translate(132,23)"/>
<path d="M0 0 C2.475 0.495 2.475 0.495 5 1 C5.33 2.98 5.66 4.96 6 7 C5.34 7 4.68 7 4 7 C0 2.52941176 0 2.52941176 0 0 Z " fill="#65A5DC" transform="translate(17,123)"/>
</svg>
